<?xml version="1.0" encoding="UTF-8" standalone="no"?>
<!-- Created with Inkscape (http://www.inkscape.org/) -->

<svg
   width="12.2mm"
   height="12.2mm"
   viewBox="0 0 12.2 12.2"
   version="1.1"
   id="svg2768"
   inkscape:version="1.1.1 (3bf5ae0d25, 2021-09-20)"
   sodipodi:docname="minus_orange.svg"
   xmlns:inkscape="http://www.inkscape.org/namespaces/inkscape"
   xmlns:sodipodi="http://sodipodi.sourceforge.net/DTD/sodipodi-0.dtd"
   xmlns:xlink="http://www.w3.org/1999/xlink"
   xmlns="http://www.w3.org/2000/svg"
   xmlns:svg="http://www.w3.org/2000/svg">
  <sodipodi:namedview
     id="namedview2770"
     pagecolor="#ffffff"
     bordercolor="#666666"
     borderopacity="1.0"
     inkscape:pageshadow="2"
     inkscape:pageopacity="0.0"
     inkscape:pagecheckerboard="0"
     inkscape:document-units="mm"
     showgrid="false"
     inkscape:zoom="12.001571"
     inkscape:cx="26.246563"
     inkscape:cy="27.079788"
     inkscape:window-width="1339"
     inkscape:window-height="1018"
     inkscape:window-x="542"
     inkscape:window-y="6"
     inkscape:window-maximized="0"
     inkscape:current-layer="layer3"
     inkscape:snap-object-midpoints="true"
     inkscape:snap-center="false" />
  <defs
     id="defs2765">
    <linearGradient
       inkscape:collect="always"
       id="linearGradient18336">
      <stop
         style="stop-color:#0096ff;stop-opacity:1;"
         offset="0"
         id="stop18332" />
      <stop
         style="stop-color:#0096ff;stop-opacity:0;"
         offset="1"
         id="stop18334" />
    </linearGradient>
    <rect
       x="-39.994762"
       y="-7.6656628"
       width="37.661736"
       height="41.494568"
       id="rect10112" />
    <linearGradient
       inkscape:collect="always"
       xlink:href="#linearGradient18336"
       id="linearGradient18338"
       x1="2.4237552"
       y1="6.1126747"
       x2="10.11011"
       y2="6.1126747"
       gradientUnits="userSpaceOnUse" />
  </defs>
  <g
     inkscape:groupmode="layer"
     id="layer2"
     inkscape:label="圖層 2"
     style="display:none;opacity:0.237942"
     transform="translate(-96.815086,-159.35881)"
     sodipodi:insensitive="true">
    <path
       id="path3600"
       style="opacity:1;fill:#ff0000;stroke:#ff0000;stroke-width:0.377953;stroke-linecap:round;stroke-linejoin:round;stroke-opacity:1"
       d="m 389.2832,602.75391 a 23.496923,22.913665 0 0 0 -23.49804,22.91406 23.496923,22.913665 0 0 0 23.49804,22.91406 23.496923,22.913665 0 0 0 23.4961,-22.91406 23.496923,22.913665 0 0 0 -23.4961,-22.91406 z m -0.64843,4.82031 8.5039,22.75 5.44727,-14.1211 3.55078,8.87305 h 6.06055 v 3.01953 h -8.10547 l -1.44727,-3.625 -5.55078,14.37305 -8.49609,-22.74414 -7.10938,18.4707 -5.32226,-11.65039 -2.13282,5.01367 h -7.66211 v -3.02734 h 5.66211 l 4.03711,-9.48633 5.17383,11.33985 z"
       transform="scale(0.26458333)" />
  </g>
  <g
     inkscape:groupmode="layer"
     id="layer3"
     inkscape:label="圖層 3"
     style="display:inline;opacity:1"
     transform="translate(-0.08442971,0.06982758)">
    <text
       xml:space="preserve"
       transform="scale(0.26458333)"
       id="text10110"
       style="font-style:normal;font-weight:normal;font-size:40px;line-height:1.25;font-family:sans-serif;white-space:pre;shape-inside:url(#rect10112);fill:#000000;fill-opacity:1;stroke:none"><tspan
         x="-39.994141"
         y="74.433594"
         id="tspan4266">融</tspan></text>
    <text
       xml:space="preserve"
       style="font-style:normal;font-weight:normal;font-size:8.5219px;line-height:1.25;font-family:sans-serif;fill:#0096ff;fill-opacity:1;stroke:#0096ff;stroke-width:0.213048;stroke-opacity:1"
       x="1.9602107"
       y="9.4124146"
       id="text16248"><tspan
         sodipodi:role="line"
         style="fill:#0096ff;fill-opacity:1;stroke:#0096ff;stroke-width:0.213048;stroke-opacity:1"
         x="1.9602107"
         y="9.4124146"
         id="tspan17150" /></text>
    <g
       id="g4246"
       transform="matrix(0.96937239,0,0,0.96937239,0.10943845,0.10471392)">
      <path
         id="path4290"
         style="opacity:1;fill:none;fill-opacity:1;stroke:#ff9955;stroke-width:3.02362;stroke-linecap:round;stroke-linejoin:round;stroke-miterlimit:4;stroke-dasharray:none;stroke-opacity:1"
         d="M 5.5271231,35.998142 A 22.271742,22.271742 0 0 1 1.4143023,23.103024 22.271742,22.271742 0 0 1 23.686044,0.83128261 22.271742,22.271742 0 0 1 45.957786,23.103024 v 0 A 22.271742,22.271742 0 0 1 23.686044,45.374766 22.271742,22.271742 0 0 1 8.4299372,39.328981"
         transform="scale(0.26458333)" />
      <path
         style="fill:#ff7f2a;stroke:#ff9955;stroke-width:0.8;stroke-linecap:round;stroke-linejoin:miter;stroke-miterlimit:4;stroke-dasharray:none;stroke-opacity:1"
         d="M 2.1884736,6.1126751 H 10.345391"
         id="path3166" />
    </g>
  </g>
</svg>
