<?xml version="1.0" encoding="UTF-8" standalone="no"?>
<!-- Created with Inkscape (http://www.inkscape.org/) -->

<svg
   width="8mm"
   height="7.9999995mm"
   viewBox="0 0 8.0000001 7.9999996"
   version="1.1"
   id="svg2768"
   inkscape:version="1.1.1 (3bf5ae0d25, 2021-09-20)"
   sodipodi:docname="minus_red.svg"
   xmlns:inkscape="http://www.inkscape.org/namespaces/inkscape"
   xmlns:sodipodi="http://sodipodi.sourceforge.net/DTD/sodipodi-0.dtd"
   xmlns:xlink="http://www.w3.org/1999/xlink"
   xmlns="http://www.w3.org/2000/svg"
   xmlns:svg="http://www.w3.org/2000/svg">
  <sodipodi:namedview
     id="namedview2770"
     pagecolor="#ffffff"
     bordercolor="#666666"
     borderopacity="1.0"
     inkscape:pageshadow="2"
     inkscape:pageopacity="0.0"
     inkscape:pagecheckerboard="0"
     inkscape:document-units="mm"
     showgrid="false"
     inkscape:zoom="12.001571"
     inkscape:cx="10.99856"
     inkscape:cy="12.914976"
     inkscape:window-width="1339"
     inkscape:window-height="1018"
     inkscape:window-x="542"
     inkscape:window-y="6"
     inkscape:window-maximized="0"
     inkscape:current-layer="layer3"
     inkscape:snap-object-midpoints="true"
     inkscape:snap-center="false" />
  <defs
     id="defs2765">
    <linearGradient
       inkscape:collect="always"
       id="linearGradient18336">
      <stop
         style="stop-color:#0096ff;stop-opacity:1;"
         offset="0"
         id="stop18332" />
      <stop
         style="stop-color:#0096ff;stop-opacity:0;"
         offset="1"
         id="stop18334" />
    </linearGradient>
    <rect
       x="-39.994762"
       y="-7.6656628"
       width="37.661736"
       height="41.494568"
       id="rect10112" />
    <linearGradient
       inkscape:collect="always"
       xlink:href="#linearGradient18336"
       id="linearGradient18338"
       x1="2.4237552"
       y1="6.1126747"
       x2="10.11011"
       y2="6.1126747"
       gradientUnits="userSpaceOnUse" />
  </defs>
  <g
     inkscape:groupmode="layer"
     id="layer2"
     inkscape:label="圖層 2"
     style="display:none;opacity:0.237942"
     transform="translate(-96.705782,-159.24951)"
     sodipodi:insensitive="true">
    <path
       id="path3600"
       style="opacity:1;fill:#ff0000;stroke:#ff0000;stroke-width:0.377953;stroke-linecap:round;stroke-linejoin:round;stroke-opacity:1"
       d="m 389.2832,602.75391 a 23.496923,22.913665 0 0 0 -23.49804,22.91406 23.496923,22.913665 0 0 0 23.49804,22.91406 23.496923,22.913665 0 0 0 23.4961,-22.91406 23.496923,22.913665 0 0 0 -23.4961,-22.91406 z m -0.64843,4.82031 8.5039,22.75 5.44727,-14.1211 3.55078,8.87305 h 6.06055 v 3.01953 h -8.10547 l -1.44727,-3.625 -5.55078,14.37305 -8.49609,-22.74414 -7.10938,18.4707 -5.32226,-11.65039 -2.13282,5.01367 h -7.66211 v -3.02734 h 5.66211 l 4.03711,-9.48633 5.17383,11.33985 z"
       transform="scale(0.26458333)" />
  </g>
  <g
     inkscape:groupmode="layer"
     id="layer3"
     inkscape:label="圖層 3"
     style="display:inline;opacity:1"
     transform="translate(0.02487468,0.17913196)">
    <text
       xml:space="preserve"
       transform="scale(0.26458333)"
       id="text10110"
       style="font-style:normal;font-weight:normal;font-size:40px;line-height:1.25;font-family:sans-serif;white-space:pre;shape-inside:url(#rect10112);fill:#000000;fill-opacity:1;stroke:none"><tspan
         x="-39.994141"
         y="74.433594"
         id="tspan4633">融</tspan></text>
    <text
       xml:space="preserve"
       style="font-style:normal;font-weight:normal;font-size:8.5219px;line-height:1.25;font-family:sans-serif;fill:#0096ff;fill-opacity:1;stroke:#0096ff;stroke-width:0.213048;stroke-opacity:1"
       x="1.9602107"
       y="9.4124146"
       id="text16248"><tspan
         sodipodi:role="line"
         style="fill:#0096ff;fill-opacity:1;stroke:#0096ff;stroke-width:0.213048;stroke-opacity:1"
         x="1.9602107"
         y="9.4124146"
         id="tspan17150" /></text>
    <path
       id="path4434"
       style="fill:none;fill-opacity:1;stroke:#ff0000;stroke-width:0.771878;stroke-linecap:round;stroke-linejoin:round;stroke-miterlimit:4;stroke-dasharray:none;stroke-opacity:1"
       d="M 0.75258859,5.4569285 A 3.6140612,3.6140612 0 0 1 0.36106432,3.8208679 3.6140612,3.6140612 0 0 1 3.9751251,0.20680704 3.6140612,3.6140612 0 0 1 7.5891863,3.8208679 v 0 A 3.6140612,3.6140612 0 0 1 3.9751251,7.4349287 3.6140612,3.6140612 0 0 1 2.0371977,6.8714208" />
    <path
       style="fill:#ff7f2a;stroke:#ff0000;stroke-width:0.771877;stroke-linecap:round;stroke-linejoin:miter;stroke-miterlimit:4;stroke-dasharray:none;stroke-opacity:1"
       d="M 2.2360172,3.820868 H 5.7142335"
       id="path3166" />
  </g>
</svg>
