<?xml version="1.0" encoding="UTF-8" standalone="no"?>
<!-- Created with Inkscape (http://www.inkscape.org/) -->

<svg
   width="14.094098mm"
   height="16.062069mm"
   viewBox="0 0 14.094098 16.062069"
   version="1.1"
   id="svg5"
   inkscape:version="1.1.1 (3bf5ae0d25, 2021-09-20)"
   sodipodi:docname="user.svg"
   xmlns:inkscape="http://www.inkscape.org/namespaces/inkscape"
   xmlns:sodipodi="http://sodipodi.sourceforge.net/DTD/sodipodi-0.dtd"
   xmlns="http://www.w3.org/2000/svg"
   xmlns:svg="http://www.w3.org/2000/svg">
  <sodipodi:namedview
     id="namedview7"
     pagecolor="#ffffff"
     bordercolor="#666666"
     borderopacity="1.0"
     inkscape:pageshadow="2"
     inkscape:pageopacity="0.0"
     inkscape:pagecheckerboard="0"
     inkscape:document-units="mm"
     showgrid="false"
     inkscape:zoom="3.0003928"
     inkscape:cx="69.490901"
     inkscape:cy="13.498233"
     inkscape:window-width="1920"
     inkscape:window-height="1027"
     inkscape:window-x="-8"
     inkscape:window-y="-8"
     inkscape:window-maximized="1"
     inkscape:current-layer="layer1" />
  <defs
     id="defs2" />
  <g
     inkscape:label="圖層 1"
     inkscape:groupmode="layer"
     id="layer1"
     style="opacity:1"
     transform="translate(-92.606485,-119.44713)">
    <g
       id="g1052"
       transform="translate(120.14346,86.831574)"
       style="fill:#ffffff">
      <g
         id="layer12"
         inkscape:label="圖層 7"
         style="display:none;opacity:1;fill:#ffffff"
         transform="translate(0.96628285,4.3358176)">
        <g
           id="g25400"
           transform="matrix(1,0,0,0.88241508,0,0.87657702)"
           style="fill:#ffffff" />
        <g
           id="rect26321"
           transform="rotate(135)"
           style="fill:#ffffff" />
        <path
           style="fill:#ffffff;stroke:#ff0000;stroke-width:1;stroke-linecap:round;stroke-linejoin:round;stroke-miterlimit:4;stroke-dasharray:none;stroke-opacity:1"
           d="M -0.1221697,4.5832324 4.2426609,0.77959428 7.516284,3.0867192 l 5.362506,-4.05305719 -2.114711,0.1738256"
           id="path28570"
           sodipodi:nodetypes="ccccc" />
        <path
           style="fill:#ffffff;stroke:#ff0000;stroke-width:1;stroke-linecap:round;stroke-linejoin:miter;stroke-miterlimit:4;stroke-dasharray:none;stroke-opacity:1"
           d="M 12.87879,-0.96633799 12.348775,0.81077164"
           id="path28572"
           sodipodi:nodetypes="cc" />
        <path
           id="path28574"
           style="display:inline;fill:#ffffff;stroke:#ff0000;stroke-width:1;stroke-linecap:butt;stroke-linejoin:miter;stroke-miterlimit:4;stroke-dasharray:none;stroke-opacity:1"
           d="M -0.09099233,10.569286 H 13.12821 V 3.336138 L 7.7657029,7.2021309 4.4297251,4.8638286 -0.24687914,8.7921764 v 2.3071246" />
      </g>
      <g
         id="layer13"
         inkscape:label="圖層 8"
         transform="translate(0.21940371,2.8694796)"
         style="display:none;fill:#ffffff">
        <path
           id="path29297"
           style="opacity:1;fill:#ffffff;fill-opacity:1;stroke:#ff0000;stroke-width:3.69589;stroke-linecap:round;stroke-linejoin:round;stroke-miterlimit:4;stroke-dasharray:none"
           d="M 6.617444,34.090816 A 27.136207,26.790523 0 0 1 1.0187026,17.793191 27.136207,26.790523 0 0 1 28.15491,-8.9973324 27.136207,26.790523 0 0 1 55.291117,17.793191 v 0 A 27.136207,26.790523 0 0 1 28.15491,44.583714 27.136207,26.790523 0 0 1 11.905273,39.249332"
           transform="scale(0.26458333)" />
        <path
           style="fill:#ffffff;stroke:#ff0000;stroke-width:1;stroke-linecap:round;stroke-linejoin:round;stroke-miterlimit:4;stroke-dasharray:none;stroke-opacity:1"
           d="M 1.7508654,9.0198616 5.6792131,4.592676 7.7680963,6.3386083 11.602912,1.9737776 H 8.4851756"
           id="path29434" />
        <path
           style="fill:#ffffff;stroke:#ff0000;stroke-width:1;stroke-linecap:round;stroke-linejoin:round;stroke-miterlimit:4;stroke-dasharray:none;stroke-opacity:1"
           d="M 11.729675,1.8966176 11.571734,5.1226912"
           id="path29436"
           sodipodi:nodetypes="cc" />
      </g>
      <g
         id="layer14"
         inkscape:label="圖層 9"
         style="display:none;opacity:1;fill:#ffffff">
        <rect
           style="opacity:1;fill:#ffffff;fill-opacity:1;stroke:#ff0000;stroke-width:1;stroke-linecap:round;stroke-linejoin:round;stroke-miterlimit:4;stroke-dasharray:none"
           id="rect30232"
           width="12.213331"
           height="11.816508"
           x="1.5432007"
           y="1.7636578"
           ry="1.8959323" />
        <path
           style="fill:#ffffff;stroke:#ff0000;stroke-width:1;stroke-linecap:butt;stroke-linejoin:miter;stroke-miterlimit:4;stroke-dasharray:none;stroke-opacity:1"
           d="M 4.1445963,7.6719119 6.7019002,9.9205758 11.243319,5.0264253"
           id="path30388" />
      </g>
      <g
         id="layer15"
         inkscape:label="圖層 10"
         style="opacity:1;fill:#ffffff"
         transform="matrix(1.1122654,0,0,1.1122654,-46.497392,-4.3551385)">
        <path
           id="path30583"
           style="opacity:1;fill:#ffffff;fill-opacity:1;stroke:none;stroke-width:4.58407;stroke-linecap:round;stroke-linejoin:round;stroke-miterlimit:4;stroke-dasharray:none"
           d="m 363.86719,381.46289 a 19.908712,20.110831 0 0 0 -19.90821,20.11133 19.908712,20.110831 0 0 0 11.51172,18.22461 c -17.00634,4.58495 -18.12695,22.37109 -18.12695,22.37109 h 53.26758 c 0,0 0.51763,-18.22774 -17.99805,-22.5332 a 19.908712,20.110831 0 0 0 11.16406,-18.0625 19.908712,20.110831 0 0 0 -19.91015,-20.11133 z m -9.99805,25.89453 h 20.13867 a 10.074952,9.4857742 0 0 1 0.002,0.17774 10.074952,9.4857742 0 0 1 -10.07422,9.48632 10.074952,9.4857742 0 0 1 -10.07422,-9.48632 10.074952,9.4857742 0 0 1 0.008,-0.17774 z"
           transform="matrix(0.23787788,0,0,0.23787788,-63.19995,-57.502487)" />
      </g>
    </g>
  </g>
  <g
     inkscape:groupmode="layer"
     id="layer2"
     inkscape:label="圖層 2"
     transform="translate(-92.606485,-119.44713)">
    <path
       id="path1689"
       style="opacity:0.466238;fill:#ff0000;stroke:none;stroke-width:0.866563;stroke-linecap:round;stroke-linejoin:round"
       d="m 128.65103,120.04049 a 4.7009888,4.8360742 0 0 0 -4.70101,4.83588 4.7009888,4.8360742 0 0 0 0.0522,0.72037 c -1.14815,0.0844 -2.04794,1.03667 -2.04794,2.2071 v 5.51801 c 0,1.22633 0.98749,2.21382 2.21382,2.21382 h 8.7297 c 1.22633,0 2.2133,-0.98749 2.2133,-2.21382 v -5.51801 c 0,-1.09085 -0.78121,-1.99224 -1.81695,-2.17816 a 4.7009888,4.8360742 0 0 0 0.0579,-0.74931 4.7009888,4.8360742 0 0 0 -4.701,-4.83588 z m 0.007,1.93322 a 2.9306721,3.0242041 0 0 1 2.93057,3.0241 2.9306721,3.0242041 0 0 1 -0.06,0.59893 h -5.74125 a 2.9306721,3.0242041 0 0 1 -0.06,-0.59893 2.9306721,3.0242041 0 0 1 2.93058,-3.0241 z m -0.0935,5.7676 a 1.901819,1.8082869 0 0 1 1.90169,1.80816 1.901819,1.8082869 0 0 1 -1.02887,1.60559 v 1.29397 c 0,0.46636 -0.37546,0.84181 -0.84181,0.84181 -0.46635,0 -0.84181,-0.37545 -0.84181,-0.84181 v -1.264 a 1.901819,1.8082869 0 0 1 -1.09141,-1.63556 1.901819,1.8082869 0 0 1 1.90221,-1.80816 z" />
  </g>
</svg>
